<?xml version="1.0" encoding="UTF-8"?>
<svg id="Capa_2" xmlns="http://www.w3.org/2000/svg" version="1.1" viewBox="0 0 494.61 228.52">
  <!-- Generator: Adobe Illustrator 29.3.1, SVG Export Plug-In . SVG Version: 2.1.0 Build 151)  -->
  <defs>
    <style>
      .st0 {
        fill: #e2477e;
      }

      .st1 {
        fill: #199738;
      }
    </style>
  </defs>
  <g>
    <path class="st0" d="M86.11,80.3c4.54,0,8.8.97,12.77,2.9,3.97,1.94,6.63,5.25,7.97,9.95l-2.01,1.38c-1.45-3.87-3.69-6.68-6.73-8.43-3.04-1.75-6.63-2.62-10.76-2.62-6.09,0-11.17,2.81-15.25,8.43-4.08,5.62-6.06,14.28-5.96,25.97,0,7.46.8,13.66,2.4,18.58,1.6,4.93,3.97,8.61,7.12,11.05,3.15,2.44,6.99,3.66,11.53,3.66s8.25-1.66,11.76-4.97c3.51-3.31,5.62-8.2,6.35-14.64l1.86,1.94c-.83,7-3.33,12.39-7.51,16.16-4.18,3.78-9.83,5.66-16.95,5.66-6.4,0-12-1.38-16.79-4.14s-8.46-6.91-10.99-12.43c-2.53-5.53-3.79-12.48-3.79-20.86s1.62-15.36,4.88-20.93c3.25-5.57,7.53-9.74,12.85-12.5,5.31-2.76,11.07-4.14,17.26-4.14ZM118.61,45.07v93.26c0,4.15.85,7.21,2.55,9.19,1.7,1.98,4.77,2.97,9.21,2.97v2.9c-3.2-.28-6.4-.41-9.6-.41-2.99,0-5.86.14-8.59.41-2.73.28-5.24.78-7.51,1.52V61.65c0-4.14-.83-7.21-2.48-9.19-1.65-1.98-4.75-2.97-9.29-2.97v-2.9c3.3.28,6.5.41,9.6.41s5.85-.16,8.59-.48c2.73-.32,5.24-.81,7.51-1.45Z"/>
    <path class="st0" d="M208.38,80.72v57.75c0,4.14.85,7.21,2.55,9.19,1.7,1.98,4.77,2.97,9.21,2.97v2.9c-3.2-.28-6.4-.41-9.6-.41-2.99,0-5.86.14-8.59.41-2.74.28-5.24.78-7.51,1.52v-16.3c-2.58,5.99-6.22,10.25-10.91,12.78-4.7,2.53-9.52,3.8-14.47,3.8-3.61,0-6.76-.46-9.44-1.38-2.68-.92-4.9-2.21-6.66-3.87-1.96-1.84-3.3-4.23-4.02-7.18-.72-2.95-1.08-6.58-1.08-10.92v-34.68c0-4.14-.83-7.21-2.48-9.19-1.65-1.98-4.75-2.97-9.29-2.97v-2.9c3.3.28,6.5.41,9.6.41s5.85-.16,8.59-.48c2.73-.32,5.24-.8,7.51-1.45v54.3c0,2.86.21,5.48.62,7.88.41,2.4,1.44,4.33,3.1,5.8,1.65,1.47,4.33,2.21,8.05,2.21,4.02,0,7.61-1.1,10.76-3.31,3.15-2.21,5.62-5.2,7.43-8.98,1.8-3.78,2.71-8.01,2.71-12.71v-28.6c0-4.14-.83-7.21-2.48-9.19-1.65-1.98-4.75-2.97-9.29-2.97v-2.9c3.3.28,6.5.41,9.6.41s5.86-.16,8.59-.48c2.73-.32,5.24-.8,7.51-1.45Z"/>
    <path class="st0" d="M250.01,154.36c-4.23,0-7.89-.71-10.99-2.14-3.1-1.43-5.44-3.43-7.04-6.01-1.6-2.58-2.4-5.57-2.4-8.98,0-4.05,1.06-7.37,3.17-9.95,2.11-2.58,4.82-4.65,8.12-6.22,3.3-1.56,6.78-2.88,10.45-3.94,3.66-1.06,7.14-2.07,10.45-3.04,3.3-.97,6.01-2.09,8.13-3.38,2.11-1.29,3.17-2.99,3.17-5.11v-8.57c0-3.87-.65-6.81-1.93-8.84-1.29-2.03-3.02-3.38-5.19-4.08s-4.59-1.04-7.27-1.04-5.34.32-8.28.97c-2.94.64-5.29,1.98-7.04,4.01,1.96.37,3.66,1.29,5.11,2.76,1.44,1.47,2.17,3.36,2.17,5.66s-.83,4.12-2.48,5.46c-1.65,1.34-3.77,2-6.35,2-2.99,0-5.18-.85-6.58-2.56-1.39-1.7-2.09-3.61-2.09-5.73,0-2.39.67-4.33,2.01-5.8,1.34-1.47,3.04-2.85,5.11-4.14,2.37-1.47,5.44-2.74,9.21-3.8,3.77-1.06,8.02-1.59,12.77-1.59,4.23,0,7.84.44,10.83,1.31,2.99.88,5.47,2.14,7.43,3.8,2.68,2.21,4.44,4.9,5.26,8.08.82,3.18,1.24,6.98,1.24,11.4v38.41c0,2.3.39,3.96,1.16,4.97.77,1.02,1.99,1.52,3.64,1.52,1.13,0,2.22-.23,3.25-.69,1.03-.46,2.27-1.2,3.71-2.21l1.7,2.35c-2.17,1.47-4.23,2.69-6.19,3.66-1.96.97-4.59,1.45-7.89,1.45-2.99,0-5.47-.46-7.43-1.38-1.96-.92-3.43-2.28-4.41-4.08-.98-1.8-1.47-4.08-1.47-6.84-2.79,4.14-6.11,7.23-9.98,9.26-3.87,2.03-8.23,3.04-13.08,3.04ZM255.58,148.83c3.4,0,6.58-.87,9.52-2.62,2.94-1.75,5.6-4.37,7.97-7.88v-27.08c-1.24,1.57-3.04,2.88-5.42,3.94-2.38,1.06-4.95,2.12-7.74,3.18-2.79,1.06-5.44,2.3-7.97,3.73-2.53,1.43-4.62,3.29-6.27,5.6-1.65,2.3-2.48,5.3-2.48,8.98s1.11,6.63,3.33,8.84c2.22,2.21,5.24,3.31,9.05,3.31Z"/>
    <path class="st0" d="M329.72,45.07v95.47c0,3.87.9,6.49,2.71,7.88,1.8,1.38,4.82,2.07,9.05,2.07v2.9c-1.75-.09-4.41-.21-7.97-.35-3.56-.14-7.15-.21-10.76-.21s-7.07.07-10.68.21c-3.61.14-6.29.25-8.05.35v-2.9c4.23,0,7.25-.69,9.05-2.07,1.8-1.38,2.71-4.01,2.71-7.88V61.65c0-4.14-.83-7.21-2.48-9.19-1.65-1.98-4.75-2.97-9.29-2.97v-2.9c3.3.28,6.5.41,9.6.41s5.85-.16,8.59-.48c2.73-.32,5.24-.81,7.51-1.45Z"/>
  </g>
  <g>
    <path class="st1" d="M363.19,88.46c-3.26,0-6.33-.52-9.23-1.58-2.89-1.05-5.22-2.45-6.98-4.21l2.25-3.67c1.46,1.5,3.42,2.74,5.88,3.73,2.46.99,5.15,1.48,8.07,1.48,3.73,0,6.59-.81,8.58-2.44,1.99-1.63,2.99-3.82,2.99-6.56s-.98-4.93-2.93-6.56c-1.95-1.63-5.03-2.44-9.23-2.44h-3.22v-3.41l13.89-17.43.64,1.8h-25.08v-4.12h28.94v3.28l-13.89,17.43-2.25-1.48h1.74c5.4,0,9.44,1.2,12.12,3.6,2.68,2.4,4.02,5.49,4.02,9.26,0,2.53-.6,4.8-1.8,6.82-1.2,2.02-3.01,3.6-5.43,4.76-2.42,1.16-5.46,1.74-9.1,1.74Z"/>
    <path class="st1" d="M404.47,88.46c-3.99,0-7.35-.89-10.1-2.67-2.74-1.78-4.82-4.35-6.24-7.72-1.41-3.37-2.12-7.41-2.12-12.12,0-5.1.87-9.38,2.6-12.83s4.15-6.06,7.24-7.81c3.09-1.76,6.67-2.64,10.74-2.64,2.01,0,3.94.19,5.79.58,1.84.39,3.47,1.01,4.89,1.87l-1.87,3.73c-1.16-.77-2.49-1.32-3.99-1.64-1.5-.32-3.09-.48-4.76-.48-4.85,0-8.71,1.54-11.61,4.63-2.89,3.09-4.34,7.7-4.34,13.83,0,.94.05,2.11.16,3.5.11,1.39.35,2.78.74,4.15l-1.61-1.22c.47-2.23,1.39-4.13,2.77-5.69,1.37-1.56,3.09-2.75,5.14-3.57,2.06-.81,4.31-1.22,6.75-1.22,3,0,5.64.56,7.91,1.67,2.27,1.12,4.05,2.68,5.34,4.7,1.29,2.02,1.93,4.39,1.93,7.14s-.67,5.22-1.99,7.3c-1.33,2.08-3.16,3.69-5.5,4.82-2.34,1.14-4.96,1.7-7.88,1.7ZM404.28,84.54c2.14,0,4.04-.4,5.69-1.19,1.65-.79,2.95-1.93,3.89-3.41.94-1.48,1.42-3.2,1.42-5.18,0-2.96-1.02-5.32-3.05-7.07-2.04-1.76-4.79-2.64-8.26-2.64-2.32,0-4.33.43-6.04,1.29-1.72.86-3.07,2.03-4.05,3.5-.99,1.48-1.48,3.16-1.48,5.05,0,1.63.45,3.18,1.35,4.66.9,1.48,2.24,2.68,4.02,3.6,1.78.92,3.96,1.38,6.53,1.38Z"/>
    <path class="st1" d="M439.39,88.46c-3.21,0-6.28-.52-9.2-1.58-2.92-1.05-5.23-2.45-6.95-4.21l2.25-3.67c1.41,1.5,3.35,2.74,5.82,3.73,2.46.99,5.13,1.48,8.01,1.48,3.81,0,6.72-.85,8.71-2.54,1.99-1.69,2.99-3.91,2.99-6.66,0-1.93-.46-3.59-1.38-4.98-.92-1.39-2.48-2.48-4.66-3.25-2.19-.77-5.19-1.16-9-1.16h-9.58l2.32-22.57h24.63v4.12h-22.76l2.38-2.25-1.99,18.91-2.38-2.32h8.42c4.54,0,8.19.56,10.93,1.67,2.74,1.12,4.73,2.67,5.95,4.66,1.22,1.99,1.83,4.32,1.83,6.98s-.6,4.83-1.8,6.91c-1.2,2.08-3,3.72-5.4,4.92-2.4,1.2-5.44,1.8-9.13,1.8Z"/>
  </g>
  <g>
    <path class="st1" d="M64.14,192.32c.82-.34,1.51-.85,2.08-1.52l1.18,1.36c-.69.83-1.55,1.46-2.57,1.89-1.03.43-2.16.65-3.4.65-1.6,0-3.02-.34-4.26-1.02-1.24-.68-2.21-1.62-2.9-2.82s-1.03-2.56-1.03-4.08.33-2.88.99-4.08c.66-1.2,1.57-2.14,2.74-2.81,1.16-.67,2.48-1.01,3.96-1.01,1.38,0,2.63.32,3.74.95,1.11.63,2,1.51,2.66,2.63s1.01,2.41,1.05,3.84l-12.77,2.48c.39,1.26,1.11,2.25,2.14,2.97,1.04.72,2.27,1.08,3.71,1.08.97,0,1.86-.17,2.68-.52ZM58.02,181.44c-.86.5-1.53,1.2-2.01,2.1-.48.9-.72,1.93-.72,3.09,0,.3,0,.51.03.65l10.97-2.13c-.24-1.3-.84-2.37-1.8-3.21s-2.15-1.26-3.55-1.26c-1.08,0-2.06.25-2.91.75Z"/>
    <path class="st1" d="M86.86,172.61v21.94h-2.01v-3.08c-.63,1.04-1.46,1.84-2.5,2.4-1.04.55-2.2.83-3.5.83-1.46,0-2.78-.33-3.96-1-1.18-.67-2.11-1.61-2.78-2.81-.67-1.2-1.01-2.57-1.01-4.11s.33-2.91,1.01-4.11c.67-1.2,1.6-2.13,2.78-2.79,1.18-.66,2.5-.99,3.96-.99,1.26,0,2.4.26,3.42.78,1.02.52,1.85,1.29,2.5,2.29v-9.34h2.1ZM81.97,192.09c.88-.5,1.57-1.22,2.07-2.14.5-.93.75-1.98.75-3.16s-.25-2.24-.75-3.16c-.5-.93-1.19-1.64-2.07-2.14-.88-.5-1.86-.75-2.94-.75s-2.09.25-2.97.75c-.88.5-1.57,1.22-2.07,2.14-.5.93-.75,1.98-.75,3.16s.25,2.24.75,3.16c.5.93,1.19,1.64,2.07,2.14.88.5,1.87.75,2.97.75s2.06-.25,2.94-.75Z"/>
    <path class="st1" d="M106.73,179v15.55h-2.01v-2.84c-.55.95-1.31,1.68-2.28,2.2s-2.07.78-3.31.78c-2.03,0-3.63-.57-4.81-1.7-1.17-1.13-1.76-2.79-1.76-4.98v-9.02h2.1v8.81c0,1.64.4,2.88,1.21,3.73.81.85,1.96,1.27,3.46,1.27,1.64,0,2.93-.5,3.87-1.49.95-1,1.42-2.38,1.42-4.15v-8.16h2.1Z"/>
    <path class="st1" d="M114.94,193.7c-1.21-.67-2.16-1.61-2.85-2.82-.69-1.21-1.04-2.58-1.04-4.1s.34-2.88,1.04-4.08c.69-1.2,1.64-2.14,2.85-2.81,1.21-.67,2.59-1.01,4.12-1.01,1.34,0,2.54.26,3.59.78s1.89,1.29,2.5,2.29l-1.57,1.06c-.51-.77-1.16-1.34-1.95-1.73-.79-.38-1.65-.58-2.57-.58-1.12,0-2.13.25-3.03.75s-1.6,1.22-2.1,2.14c-.5.93-.75,1.98-.75,3.16s.25,2.26.75,3.18c.5.92,1.2,1.63,2.1,2.13.9.5,1.91.75,3.03.75.93,0,1.78-.19,2.57-.56.79-.37,1.44-.95,1.95-1.71l1.57,1.06c-.61,1.01-1.45,1.77-2.51,2.29s-2.26.78-3.58.78c-1.54,0-2.91-.33-4.12-1Z"/>
    <path class="st1" d="M143.19,179v15.55h-2.01v-3.08c-.63,1.04-1.46,1.84-2.5,2.4s-2.2.83-3.5.83c-1.46,0-2.78-.33-3.96-1s-2.11-1.61-2.78-2.81c-.67-1.2-1-2.57-1-4.11s.33-2.91,1-4.11c.67-1.2,1.6-2.13,2.78-2.79,1.18-.66,2.5-.99,3.96-.99,1.26,0,2.4.26,3.42.78,1.01.52,1.85,1.29,2.5,2.29v-2.96h2.1ZM138.3,192.09c.88-.5,1.57-1.22,2.07-2.14.5-.93.75-1.98.75-3.16s-.25-2.24-.75-3.16-1.19-1.64-2.07-2.14-1.86-.75-2.94-.75-2.09.25-2.97.75c-.88.5-1.57,1.22-2.07,2.14-.5.93-.75,1.98-.75,3.16s.25,2.24.75,3.16c.5.93,1.19,1.64,2.07,2.14.88.5,1.87.75,2.97.75s2.07-.25,2.94-.75Z"/>
    <path class="st1" d="M151.37,193.7c-1.21-.67-2.16-1.61-2.85-2.82-.69-1.21-1.04-2.58-1.04-4.1s.34-2.88,1.04-4.08c.69-1.2,1.64-2.14,2.85-2.81,1.21-.67,2.59-1.01,4.12-1.01,1.34,0,2.54.26,3.59.78s1.89,1.29,2.5,2.29l-1.57,1.06c-.51-.77-1.16-1.34-1.95-1.73-.79-.38-1.65-.58-2.57-.58-1.12,0-2.13.25-3.03.75s-1.6,1.22-2.1,2.14c-.5.93-.75,1.98-.75,3.16s.25,2.26.75,3.18c.5.92,1.2,1.63,2.1,2.13.9.5,1.91.75,3.03.75.93,0,1.78-.19,2.57-.56.79-.37,1.44-.95,1.95-1.71l1.57,1.06c-.61,1.01-1.45,1.77-2.51,2.29s-2.26.78-3.58.78c-1.54,0-2.91-.33-4.12-1Z"/>
    <path class="st1" d="M165.67,175.16c-.3-.3-.44-.65-.44-1.06s.15-.74.44-1.04c.29-.3.66-.44,1.09-.44s.8.14,1.09.43.44.63.44,1.02c0,.43-.15.8-.44,1.09s-.66.44-1.09.44-.8-.15-1.09-.44ZM165.7,179h2.1v15.55h-2.1v-15.55Z"/>
    <path class="st1" d="M175.96,193.68c-1.2-.68-2.15-1.62-2.84-2.82-.69-1.2-1.04-2.56-1.04-4.08s.34-2.88,1.04-4.08c.69-1.2,1.64-2.14,2.84-2.81,1.2-.67,2.55-1.01,4.05-1.01s2.85.34,4.05,1.01c1.2.67,2.14,1.61,2.82,2.81.68,1.2,1.02,2.56,1.02,4.08s-.34,2.88-1.02,4.08c-.68,1.2-1.62,2.14-2.82,2.82-1.2.68-2.55,1.02-4.05,1.02s-2.85-.34-4.05-1.02ZM182.98,192.09c.88-.5,1.56-1.22,2.06-2.14.49-.93.74-1.98.74-3.16s-.25-2.24-.74-3.16c-.49-.93-1.18-1.64-2.06-2.14s-1.87-.75-2.97-.75-2.09.25-2.97.75c-.88.5-1.57,1.22-2.07,2.14-.5.93-.75,1.98-.75,3.16s.25,2.24.75,3.16c.5.93,1.19,1.64,2.07,2.14.88.5,1.87.75,2.97.75s2.09-.25,2.97-.75ZM182.11,172.91h2.81l-4.79,3.67h-2.07l4.05-3.67Z"/>
    <path class="st1" d="M204.77,180.58c1.15,1.13,1.73,2.79,1.73,4.95v9.02h-2.1v-8.81c0-1.62-.4-2.85-1.21-3.7s-1.96-1.27-3.46-1.27c-1.68,0-3,.5-3.98,1.49-.98,1-1.46,2.37-1.46,4.12v8.16h-2.1v-15.55h2.01v2.87c.57-.95,1.37-1.68,2.38-2.2,1.01-.52,2.19-.78,3.53-.78,1.95,0,3.5.57,4.66,1.7Z"/>
    <path class="st1" d="M234.15,172.61v21.94h-2.01v-3.08c-.63,1.04-1.46,1.84-2.5,2.4s-2.2.83-3.5.83c-1.46,0-2.78-.33-3.96-1s-2.11-1.61-2.78-2.81c-.67-1.2-1-2.57-1-4.11s.33-2.91,1-4.11c.67-1.2,1.6-2.13,2.78-2.79,1.18-.66,2.5-.99,3.96-.99,1.26,0,2.4.26,3.42.78,1.01.52,1.85,1.29,2.5,2.29v-9.34h2.1ZM229.26,192.09c.88-.5,1.57-1.22,2.07-2.14.5-.93.75-1.98.75-3.16s-.25-2.24-.75-3.16-1.19-1.64-2.07-2.14-1.86-.75-2.94-.75-2.09.25-2.97.75c-.88.5-1.57,1.22-2.07,2.14-.5.93-.75,1.98-.75,3.16s.25,2.24.75,3.16c.5.93,1.19,1.64,2.07,2.14.88.5,1.87.75,2.97.75s2.07-.25,2.94-.75Z"/>
    <path class="st1" d="M254.02,179v15.55h-2.01v-2.84c-.55.95-1.31,1.68-2.28,2.2s-2.07.78-3.31.78c-2.03,0-3.63-.57-4.81-1.7-1.17-1.13-1.76-2.79-1.76-4.98v-9.02h2.1v8.81c0,1.64.4,2.88,1.21,3.73.81.85,1.96,1.27,3.46,1.27,1.64,0,2.93-.5,3.87-1.49.95-1,1.42-2.38,1.42-4.15v-8.16h2.1Z"/>
    <path class="st1" d="M274.1,179v15.55h-2.01v-3.08c-.63,1.04-1.46,1.84-2.5,2.4s-2.2.83-3.5.83c-1.46,0-2.78-.33-3.96-1s-2.11-1.61-2.78-2.81c-.67-1.2-1-2.57-1-4.11s.33-2.91,1-4.11c.67-1.2,1.6-2.13,2.78-2.79,1.18-.66,2.5-.99,3.96-.99,1.26,0,2.4.26,3.42.78,1.01.52,1.85,1.29,2.5,2.29v-2.96h2.1ZM269.21,192.09c.88-.5,1.57-1.22,2.07-2.14.5-.93.75-1.98.75-3.16s-.25-2.24-.75-3.16-1.19-1.64-2.07-2.14-1.86-.75-2.94-.75-2.09.25-2.97.75c-.88.5-1.57,1.22-2.07,2.14-.5.93-.75,1.98-.75,3.16s.25,2.24.75,3.16c.5.93,1.19,1.64,2.07,2.14.88.5,1.87.75,2.97.75s2.07-.25,2.94-.75Z"/>
    <path class="st1" d="M281.1,193.52c-.76-.79-1.14-1.88-1.14-3.28v-17.62h2.1v17.45c0,.93.22,1.63.65,2.11.43.48,1.08.72,1.95.72.55,0,1.03-.09,1.42-.27l.15,1.74c-.61.22-1.24.33-1.89.33-1.4,0-2.48-.39-3.24-1.18Z"/>
    <path class="st1" d="M306.17,192.32c.82-.34,1.51-.85,2.08-1.52l1.18,1.36c-.69.83-1.55,1.46-2.57,1.89-1.03.43-2.16.65-3.4.65-1.6,0-3.02-.34-4.26-1.02-1.24-.68-2.21-1.62-2.9-2.82-.69-1.2-1.04-2.56-1.04-4.08s.33-2.88.99-4.08c.66-1.2,1.57-2.14,2.74-2.81s2.48-1.01,3.96-1.01c1.38,0,2.63.32,3.74.95,1.11.63,2,1.51,2.66,2.63.66,1.12,1.01,2.41,1.05,3.84l-12.78,2.48c.39,1.26,1.11,2.25,2.14,2.97,1.04.72,2.27,1.08,3.71,1.08.97,0,1.86-.17,2.68-.52ZM300.05,181.44c-.86.5-1.53,1.2-2.01,2.1-.48.9-.72,1.93-.72,3.09,0,.3,0,.51.03.65l10.97-2.13c-.24-1.3-.84-2.37-1.8-3.21-.97-.84-2.15-1.26-3.55-1.26-1.08,0-2.06.25-2.91.75Z"/>
    <path class="st1" d="M327.29,180.58c1.15,1.13,1.73,2.79,1.73,4.95v9.02h-2.1v-8.81c0-1.62-.4-2.85-1.21-3.7s-1.96-1.27-3.46-1.27c-1.68,0-3,.5-3.98,1.49-.98,1-1.46,2.37-1.46,4.12v8.16h-2.1v-15.55h2.01v2.87c.57-.95,1.37-1.68,2.38-2.2,1.01-.52,2.19-.78,3.53-.78,1.95,0,3.5.57,4.66,1.7Z"/>
    <path class="st1" d="M343.61,193.52c-.76-.79-1.14-1.88-1.14-3.28v-17.62h2.1v17.45c0,.93.22,1.63.65,2.11.43.48,1.08.72,1.95.72.55,0,1.03-.09,1.42-.27l.15,1.74c-.61.22-1.24.33-1.89.33-1.4,0-2.48-.39-3.24-1.18Z"/>
    <path class="st1" d="M365.51,179v15.55h-2.01v-3.08c-.63,1.04-1.46,1.84-2.5,2.4s-2.2.83-3.5.83c-1.46,0-2.78-.33-3.96-1s-2.11-1.61-2.78-2.81c-.67-1.2-1-2.57-1-4.11s.33-2.91,1-4.11c.67-1.2,1.6-2.13,2.78-2.79,1.18-.66,2.5-.99,3.96-.99,1.26,0,2.4.26,3.42.78,1.01.52,1.85,1.29,2.5,2.29v-2.96h2.1ZM360.61,192.09c.88-.5,1.57-1.22,2.07-2.14.5-.93.75-1.98.75-3.16s-.25-2.24-.75-3.16-1.19-1.64-2.07-2.14-1.86-.75-2.94-.75-2.09.25-2.97.75c-.88.5-1.57,1.22-2.07,2.14-.5.93-.75,1.98-.75,3.16s.25,2.24.75,3.16c.5.93,1.19,1.64,2.07,2.14.88.5,1.87.75,2.97.75s2.07-.25,2.94-.75Z"/>
    <path class="st1" d="M391.69,180.58c1.15,1.13,1.73,2.79,1.73,4.95v9.02h-2.1v-8.81c0-1.62-.4-2.85-1.21-3.7s-1.96-1.27-3.46-1.27c-1.68,0-3,.5-3.98,1.49-.98,1-1.46,2.37-1.46,4.12v8.16h-2.1v-15.55h2.01v2.87c.57-.95,1.37-1.68,2.38-2.2,1.01-.52,2.19-.78,3.53-.78,1.95,0,3.5.57,4.66,1.7Z"/>
    <path class="st1" d="M413.14,179v15.55h-2.01v-2.84c-.55.95-1.31,1.68-2.28,2.2s-2.07.78-3.31.78c-2.03,0-3.63-.57-4.81-1.7-1.17-1.13-1.76-2.79-1.76-4.98v-9.02h2.1v8.81c0,1.64.4,2.88,1.21,3.73.81.85,1.96,1.27,3.46,1.27,1.64,0,2.93-.5,3.87-1.49.95-1,1.42-2.38,1.42-4.15v-8.16h2.1Z"/>
    <path class="st1" d="M431.01,179.87c1.18.66,2.11,1.59,2.78,2.79.67,1.2,1,2.57,1,4.11s-.33,2.91-1,4.11c-.67,1.2-1.6,2.14-2.78,2.81-1.18.67-2.5,1-3.96,1-1.3,0-2.47-.28-3.5-.83-1.04-.55-1.87-1.35-2.5-2.4v3.08h-2.01v-21.94h2.1v9.34c.65-1,1.48-1.77,2.5-2.29,1.02-.52,2.15-.78,3.42-.78,1.46,0,2.78.33,3.96.99ZM429.85,192.09c.89-.5,1.58-1.22,2.08-2.14.5-.93.75-1.98.75-3.16s-.25-2.24-.75-3.16c-.5-.93-1.2-1.64-2.08-2.14-.89-.5-1.87-.75-2.96-.75s-2.1.25-2.97.75-1.57,1.22-2.07,2.14c-.5.93-.75,1.98-.75,3.16s.25,2.24.75,3.16c.5.93,1.19,1.64,2.07,2.14.88.5,1.87.75,2.97.75s2.07-.25,2.96-.75Z"/>
    <path class="st1" d="M448.41,192.32c.82-.34,1.51-.85,2.08-1.52l1.18,1.36c-.69.83-1.55,1.46-2.57,1.89-1.03.43-2.16.65-3.4.65-1.6,0-3.02-.34-4.26-1.02-1.24-.68-2.21-1.62-2.9-2.82-.69-1.2-1.04-2.56-1.04-4.08s.33-2.88.99-4.08c.66-1.2,1.57-2.14,2.74-2.81s2.48-1.01,3.96-1.01c1.38,0,2.63.32,3.74.95,1.11.63,2,1.51,2.66,2.63.66,1.12,1.01,2.41,1.05,3.84l-12.78,2.48c.39,1.26,1.11,2.25,2.14,2.97,1.04.72,2.27,1.08,3.71,1.08.97,0,1.86-.17,2.68-.52ZM442.29,181.44c-.86.5-1.53,1.2-2.01,2.1-.48.9-.72,1.93-.72,3.09,0,.3,0,.51.03.65l10.97-2.13c-.24-1.3-.84-2.37-1.8-3.21-.97-.84-2.15-1.26-3.55-1.26-1.08,0-2.06.25-2.91.75Z"/>
  </g>
</svg>